<svg xmlns="http://www.w3.org/2000/svg" viewBox="0 0 345 194" width="345" height="194">
	<style>
		tspan { white-space:pre }
		.shp0 { fill: #2d527c } 
		.shp1 { fill: #f0bf5f } 
	</style>
	<g id="Layer">
		<path id="Layer" fill-rule="evenodd" class="shp0" d="M76.6 74.5L14.3 74.5C6.5 74.5 0.2 68.2 0.2 60.4L0.2 14.7C0.2 6.9 6.5 0.6 14.3 0.6L76.5 0.6C84.3 0.6 90.6 6.9 90.6 14.7L90.6 60.4C90.7 68.2 84.4 74.5 76.6 74.5ZM28.5 46.3L62.5 46.3L62.5 28.8L28.5 28.8L28.5 46.3Z" />
		<path id="Layer" class="shp1" d="M197.7 193.5C194.1 193.5 190.5 192.1 187.7 189.4C182.2 183.9 182.2 174.9 187.7 169.4L228.1 129C233.6 123.5 242.6 123.5 248.1 129C253.6 134.5 253.6 143.5 248.1 149L207.7 189.4C204.9 192.1 201.3 193.5 197.7 193.5Z" />
		<path id="Layer" class="shp1" d="M292.7 98.5C289.1 98.5 285.5 97.1 282.7 94.4C277.2 88.9 277.2 79.9 282.7 74.4L320.5 36.6C326 31.1 335 31.1 340.5 36.6C346 42.1 346 51.1 340.5 56.6L302.7 94.4C300 97.1 296.3 98.5 292.7 98.5Z" />
		<path id="Layer" class="shp1" d="M234.8 97.8C231.2 97.8 227.6 96.4 224.8 93.7L187.7 56.6C182.2 51.1 182.2 42.1 187.7 36.6C193.2 31.1 202.2 31.1 207.7 36.6L244.8 73.7C250.3 79.2 250.3 88.2 244.8 93.7C242.1 96.5 238.4 97.8 234.8 97.8Z" />
		<path id="Layer" class="shp1" d="M330.5 193.5C326.9 193.5 323.3 192.1 320.5 189.4L282.9 151.8C277.4 146.3 277.4 137.3 282.9 131.8C288.4 126.3 297.4 126.3 302.9 131.8L340.5 169.4C346 174.9 346 183.9 340.5 189.4C337.7 192.1 334.1 193.5 330.5 193.5Z" />
	</g>
</svg>