<svg xmlns="http://www.w3.org/2000/svg" viewBox="0 0 312 215" width="312" height="215">
	<style>
		tspan { white-space:pre }
		.shp0 { fill: #2d527c } 
	</style>
	<g id="Layer">
		<path id="Layer" fill-rule="evenodd" class="shp0" d="M265.6 215L46.3 215C21.3 215 0.9 194.6 0.9 169.6L0.9 46.1C0.9 21.1 21.3 0.7 46.3 0.7L265.7 0.7C290.7 0.7 311.1 21.1 311.1 46.1L311.1 169.6C311 194.6 290.6 215 265.6 215ZM30 46.1L30 169.6C30 178.6 37.3 185.9 46.3 185.9L265.7 185.9C274.7 185.9 282 178.6 282 169.6L282 46.1C282 37.1 274.7 29.8 265.7 29.8L46.3 29.8C37.3 29.8 30 37.1 30 46.1Z" />
		<path id="Layer" class="shp0" d="M143.8 116.4L138.9 116.4L138.9 107.5C138.9 102.4 133.8 99.1 125.9 99.1C118 99.1 112.9 102.4 112.9 107.5L112.9 116.4L104 116.4L129.1 66C129.5 65 130 63.8 130 62.6C130 56.3 121.6 52.4 117 52.4C112.2 52.4 108.3 54.8 106.1 59.1L72.1 126C70.9 128.2 70.7 130.1 70.7 131.1C70.7 136.7 74.4 140.5 79.8 140.5L112.9 140.5L112.9 154.7C112.9 160.6 119.6 163.2 125.9 163.2C132.1 163.2 138.9 160.5 138.9 154.7L138.9 140.5L143.8 140.5C148.2 140.5 152.3 134.6 152.3 128.4C152.3 122.6 149.6 116.4 143.8 116.4Z" />
		<path id="Layer" class="shp0" d="M232.6 116.4L227.7 116.4L227.7 107.5C227.7 102.4 222.6 99.1 214.7 99.1C206.8 99.1 201.7 102.4 201.7 107.5L201.7 116.4L192.8 116.4L218 66C218.4 65 218.9 63.8 218.9 62.6C218.9 56.3 210.5 52.4 205.9 52.4C201.1 52.4 197.2 54.8 195 59.1L161 126C159.8 128.2 159.6 130.1 159.6 131.1C159.6 136.7 163.3 140.5 168.7 140.5L201.8 140.5L201.8 154.7C201.8 160.6 208.5 163.2 214.8 163.2C221.1 163.2 227.8 160.5 227.8 154.7L227.8 140.5L232.7 140.5C237.1 140.5 241.2 134.6 241.2 128.4C241.2 122.6 238.5 116.4 232.6 116.4Z" />
	</g>
</svg>